<?xml version="1.0" encoding="utf-8"?>
<!-- Generator: Adobe Illustrator 16.0.0, SVG Export Plug-In . SVG Version: 6.00 Build 0)  -->
<!DOCTYPE svg PUBLIC "-//W3C//DTD SVG 1.1//EN" "http://www.w3.org/Graphics/SVG/1.1/DTD/svg11.dtd">
<svg version="1.1" id="Camada_1" xmlns="http://www.w3.org/2000/svg" xmlns:xlink="http://www.w3.org/1999/xlink" x="0px" y="0px"
	 width="396.426px" height="54.696px" viewBox="0 0 396.426 54.696" enable-background="new 0 0 396.426 54.696"
	 xml:space="preserve">
<g>
	<path fill="#FFFFFF" d="M21.24,54.696L0,5.448h13.392L27.36,38.64L41.328,5.448H54.72L33.48,54.696H21.24z"/>
	<path fill="#FFFFFF" d="M60.587,12.144c-1.321-1.248-1.98-2.808-1.98-4.68s0.659-3.444,1.98-4.716
		c1.32-1.271,2.939-1.908,4.86-1.908c1.872,0,3.48,0.637,4.824,1.908c1.343,1.272,2.016,2.844,2.016,4.716s-0.673,3.432-2.016,4.68
		c-1.344,1.249-2.952,1.872-4.824,1.872C63.527,14.016,61.907,13.393,60.587,12.144z M59.688,54.408v-34.92h11.664v34.92H59.688z"/>
	<path fill="#FFFFFF" d="M101.304,43.896c1.248-0.959,2.016-2.232,2.304-3.816h11.016c-0.241,2.977-1.165,5.605-2.772,7.884
		c-1.609,2.28-3.733,4.057-6.372,5.328c-2.64,1.271-5.544,1.908-8.712,1.908c-3.648,0-6.912-0.781-9.792-2.34
		c-2.88-1.56-5.148-3.732-6.804-6.516c-1.656-2.783-2.484-5.928-2.484-9.432c0-3.456,0.828-6.576,2.484-9.36
		c1.656-2.783,3.924-4.956,6.804-6.516c2.88-1.559,6.144-2.34,9.792-2.34c3.168,0,6.072,0.637,8.712,1.908
		c2.639,1.272,4.763,3.049,6.372,5.328c1.607,2.28,2.531,4.909,2.772,7.884h-11.016c-0.288-1.584-1.056-2.855-2.304-3.816
		c-1.249-0.959-2.761-1.44-4.536-1.44c-2.448,0-4.392,0.781-5.832,2.34c-1.44,1.56-2.16,3.564-2.16,6.012
		c0,2.448,0.72,4.464,2.16,6.048c1.44,1.584,3.384,2.376,5.832,2.376C98.543,45.336,100.055,44.857,101.304,43.896z"/>
	<path fill="#FFFFFF" d="M143.495,55.128c-1.537,0.239-3.216,0.36-5.04,0.36c-2.784,0-5.232-0.648-7.344-1.944
		c-2.113-1.296-3.756-3.12-4.932-5.472c-1.177-2.351-1.764-5.087-1.764-8.208V29.496h-6.84V19.488h6.84V7.608h11.664v11.88h11.88
		v10.008h-11.88v10.008c0,1.728,0.468,3.036,1.404,3.924c0.936,0.889,2.292,1.332,4.068,1.332c1.152,0,3.215-0.288,6.192-0.864
		l1.296,9.864C146.879,54.432,145.03,54.888,143.495,55.128z"/>
	<path fill="#FFFFFF" d="M180.791,21.036c2.88,1.561,5.135,3.733,6.768,6.516c1.631,2.784,2.448,5.904,2.448,9.36
		c0,3.504-0.817,6.672-2.448,9.504c-1.632,2.833-3.888,5.053-6.768,6.66c-2.88,1.607-6.12,2.412-9.72,2.412s-6.84-0.805-9.72-2.412
		c-2.88-1.607-5.137-3.827-6.768-6.66c-1.633-2.832-2.448-6-2.448-9.504c0-3.456,0.815-6.576,2.448-9.36
		c1.631-2.783,3.888-4.956,6.768-6.516c2.88-1.559,6.12-2.34,9.72-2.34S177.91,19.477,180.791,21.036z M176.794,42.996
		c1.463-1.607,2.196-3.611,2.196-6.012c0-2.304-0.732-4.248-2.196-5.832c-1.465-1.584-3.348-2.376-5.652-2.376
		c-2.352,0-4.26,0.792-5.724,2.376c-1.465,1.584-2.196,3.528-2.196,5.832c0,2.4,0.731,4.404,2.196,6.012
		c1.463,1.609,3.372,2.412,5.724,2.412C173.446,45.408,175.33,44.605,176.794,42.996z"/>
	<path fill="#FFFFFF" d="M212.398,31.26c-1.92,0.745-3.576,1.813-4.968,3.204v19.944h-11.664v-34.92h11.664v3.744
		c3.359-2.88,7.368-4.32,12.024-4.32V30C216.67,30.097,214.318,30.517,212.398,31.26z"/>
	<path fill="#FFFFFF" d="M252.142,54.408h-12.96L259.989,5.16h11.592l20.736,49.248h-12.888l-3.312-8.424h-20.736L252.142,54.408z
		 M259.414,35.616h12.672l-6.336-16.272L259.414,35.616z"/>
	<path fill="#FFFFFF" d="M308.876,54.408h-11.664V3.288h11.664v29.304l12.168-13.104h13.897l-13.249,14.256l14.399,20.664h-13.967
		l-8.352-12.096l-4.896,5.256V54.408z"/>
	<path fill="#FFFFFF" d="M341.456,12.144c-1.321-1.248-1.98-2.808-1.98-4.68s0.659-3.444,1.98-4.716
		c1.319-1.271,2.939-1.908,4.859-1.908c1.872,0,3.479,0.637,4.824,1.908c1.343,1.272,2.016,2.844,2.016,4.716
		s-0.673,3.432-2.016,4.68c-1.345,1.249-2.952,1.872-4.824,1.872C344.396,14.016,342.775,13.393,341.456,12.144z M340.556,54.408
		v-34.92h11.664v34.92H340.556z"/>
	<path fill="#FFFFFF" d="M387.211,21.036c2.88,1.561,5.136,3.733,6.768,6.516c1.631,2.784,2.448,5.904,2.448,9.36
		c0,3.504-0.816,6.672-2.448,9.504c-1.632,2.833-3.888,5.053-6.768,6.66s-6.12,2.412-9.721,2.412c-3.6,0-6.84-0.805-9.72-2.412
		s-5.137-3.827-6.768-6.66c-1.633-2.832-2.448-6-2.448-9.504c0-3.456,0.815-6.576,2.448-9.36c1.631-2.783,3.888-4.956,6.768-6.516
		c2.88-1.559,6.12-2.34,9.72-2.34C381.091,18.696,384.331,19.477,387.211,21.036z M383.215,42.996
		c1.464-1.607,2.196-3.611,2.196-6.012c0-2.304-0.732-4.248-2.196-5.832c-1.465-1.584-3.348-2.376-5.652-2.376
		c-2.353,0-4.26,0.792-5.724,2.376c-1.465,1.584-2.196,3.528-2.196,5.832c0,2.4,0.731,4.404,2.196,6.012
		c1.464,1.609,3.371,2.412,5.724,2.412C379.867,45.408,381.75,44.605,383.215,42.996z"/>
</g>
</svg>
